<svg width="1440" height="750" viewBox="0 0 1440 750" fill="none" xmlns="http://www.w3.org/2000/svg">
<g clip-path="url(#clip0_1_4)">
<g clip-path="url(#clip1_1_4)">
<path d="M719.694 61.6055L719.163 -418L719.19 749.978M359.455 749.978L655.236 270.633V61.6055L358.518 -418M1079.81 -418L784.157 61.6055V270.633L1078.92 749.978M1440.09 -220.766H-0.694324M1440.09 -31.8539H-0.694324M1440.09 -95.7879H-0.694324M1440.09 -167.669H-0.694324M1440.09 61.6167H-0.694324M1439.78 -294.447H-1M1440.09 -127.386H-0.694324M1440.09 -70.3292H-0.694324M1440.09 33.0715H-0.694324M1440.09 16.745H-0.694324M1440.09 6.98471H-0.694324M1440.09 25.384H-0.694324M1440.09 46.1799H-0.694324M1440.09 39.9661H-0.694324M1440.09 51.8051H-0.694324M1440.09 56.9318H-0.694324M1440.09 -401.339H-0.694324M1440.09 -16.9612H-0.694324M1440.09 -49.3864H-0.694324M1440.09 -4.15231H-0.694324M-0.693835 218.381H1440.09M-0.693835 166.128H1440.09M-0.693835 113.87H1440.09M1440.09 275.33H-0.694324M1440.09 280.468H-0.694324M1440.09 286.116H-0.694324M1440.09 292.342H-0.694324M1440.09 299.253H-0.694324M1440.09 306.962H-0.694324M1440.09 315.625H-0.694324M1440.09 325.413H-0.694324M1440.09 336.573H-0.694324M1440.09 349.415H-0.694324M1440.09 364.354H-0.694324M1440.09 381.931H-0.694324M1440.09 402.931H-0.694324M1440.09 428.457H-1M1440.09 460.141H-0.694324M1440.09 500.531H-0.694324M1440.09 553.781H-0.694324M1440.09 627.186H-0.694324M1440.09 734.87H-0.694324M-0.693835 458.282L461.856 270.634V61.6047L-0.55997 -125.504L-0.693835 458.282ZM-0.693835 272.304L10.6401 270.633V61.6053L-0.693835 59.9395V272.304ZM-0.693835 282.938L75.0982 270.634V61.6061L-0.693835 49.3345V282.938ZM-0.693835 295.927L139.556 270.634V61.6057L-0.693835 36.3752V295.927ZM-0.693835 312.169L204.019 270.633V61.6055L-0.693835 20.1786V312.169ZM-0.693835 333.044L268.477 270.633V61.6052L-0.693835 -0.646301V333.044ZM-0.693835 360.875L332.935 270.633V61.6048L-0.693835 -28.4093V360.875ZM-0.693835 399.844L397.4 270.634V61.6046L-0.693835 -67.2716V399.844ZM-0.693835 555.656L526.314 270.635V61.6048L-0.693835 -222.686V555.656ZM-0.274392 749.979L590.779 270.633V61.6056L-0.693835 -416.844L-0.274392 749.979ZM1440.09 272.304L1428.76 270.633V61.6053L1440.09 59.9395V272.304ZM1440.09 282.938L1364.3 270.634V61.6063L1440.09 49.3293V282.938ZM1440.09 295.938L1299.84 270.634V61.606L1440.09 36.3683V295.938ZM1440.09 312.185L1235.37 270.634V61.6056L1440.09 20.1607V312.185ZM1440.09 333.072L1170.92 270.634V61.6048L1440.09 -0.673798V333.072ZM1440.09 -28.4547L1106.47 61.6046L1106.46 270.634L1440.09 360.927V-28.4547ZM1440.09 -67.361L1042 61.6057L1041.99 270.634L1440.21 399.967L1440.09 -67.361ZM1440.2 -125.766L977.545 61.605L977.539 270.633L1440.09 458.442L1440.2 -125.766ZM1440.2 -223.077L913.08 61.6046V270.634L1440.09 555.979L1440.2 -223.077ZM1440.09 -417.701L848.616 61.6039V270.632L1438.65 749.977L1440.09 -417.701ZM1440.09 270.633H-0.693835H1439.78H1440.09Z" stroke="white" stroke-opacity="0.1" stroke-width="0.600503" stroke-linecap="round" stroke-linejoin="round"/>
</g>
</g>
<defs>
<clipPath id="clip0_1_4">
<rect width="1440" height="750" fill="white"/>
</clipPath>
<clipPath id="clip1_1_4">
<rect width="1440" height="784" fill="white" transform="translate(0 -34)"/>
</clipPath>
</defs>
</svg>
